<svg width="48" height="48" viewBox="0 0 48 48" fill="none" xmlns="http://www.w3.org/2000/svg">
  <circle cx="24" cy="24" r="22" fill="url(#paint0_linear)" />
  <path d="M15 20C17.2091 20 19 18.2091 19 16C19 13.7909 17.2091 12 15 12C12.7909 12 11 13.7909 11 16C11 18.2091 12.7909 20 15 20Z" fill="white" />
  <path d="M24 36C26.2091 36 28 34.2091 28 32C28 29.7909 26.2091 28 24 28C21.7909 28 20 29.7909 20 32C20 34.2091 21.7909 36 24 36Z" fill="white" />
  <path d="M33 20C35.2091 20 37 18.2091 37 16C37 13.7909 35.2091 12 33 12C30.7909 12 29 13.7909 29 16C29 18.2091 30.7909 20 33 20Z" fill="white" />
  <path d="M15 18L33 18" stroke="white" stroke-width="2" />
  <path d="M24 28L24 18" stroke="white" stroke-width="2" />
  <defs>
    <linearGradient id="paint0_linear" x1="2" y1="2" x2="46" y2="46" gradientUnits="userSpaceOnUse">
      <stop stop-color="#7B68EE" />
      <stop offset="1" stop-color="#FF69B4" />
    </linearGradient>
  </defs>
</svg>